[IMG]http://www.shotpix.com/images/52055407408581594349.jpg[/IMG]

General
Complete name                            : Bruno Mars - Locked Out Of Heaven [Music Video] 720p [Sbyky].mp4
Format                                   : MPEG-4
Format profile                           : Base Media / Version 2
Codec ID                                 : mp42
File size                                : 79.0 MiB
Duration                                 : 3mn 54s
Overall bit rate mode                    : Variable
Overall bit rate                         : 2 830 Kbps
Encoded date                             : UTC 2012-10-14 16:27:19
Tagged date                              : UTC 2012-10-14 16:27:19

Video
ID                                       : 1
Format                                   : AVC
Format/Info                              : Advanced Video Codec
Format profile                           : High@L3.1
Format settings, CABAC                   : Yes
Format settings, ReFrames                : 1 frame
Codec ID                                 : avc1
Codec ID/Info                            : Advanced Video Coding
Duration                                 : 3mn 54s
Bit rate                                 : 2 636 Kbps
Maximum bit rate                         : 5 175 Kbps
Width                                    : 1 280 pixels
Height                                   : 720 pixels
Display aspect ratio                     : 16:9
Frame rate mode                          : Constant
Frame rate                               : 23.976 fps
Color space                              : YUV
Chroma subsampling                       : 4:2:0
Bit depth                                : 8 bits
Scan type                                : Progressive
Bits/(Pixel*Frame)                       : 0.119
Stream size                              : 73.6 MiB (93%)
Tagged date                              : UTC 2012-10-14 16:27:19

Audio
ID                                       : 2
Format                                   : AAC
Format/Info                              : Advanced Audio Codec
Format profile                           : LC
Codec ID                                 : 40
Duration                                 : 3mn 54s
Bit rate mode                            : Variable
Bit rate                                 : 192 Kbps
Maximum bit rate                         : 203 Kbps
Channel(s)                               : 2 channels
Channel positions                        : Front: L R
Sampling rate                            : 44.1 KHz
Compression mode                         : Lossy
Stream size                              : 5.36 MiB (7%)
Title                                    : IsoMedia File Produced by Google, 5-11-2011
Encoded date                             : UTC 2012-10-14 16:27:19
Tagged date                              : UTC 2012-10-14 16:27:19

Shared By Sbyky
[IMG]http://www.shotpix.com/images/93673952718153918459.gif[/IMG]
[IMG]http://www.shotpix.com/images/30389343628541615007.gif[/IMG]